<?xml version="1.0" standalone="no"?>
<!DOCTYPE svg PUBLIC "-//W3C//DTD SVG 20010904//EN"
 "http://www.w3.org/TR/2001/REC-SVG-20010904/DTD/svg10.dtd">
<svg version="1.0" xmlns="http://www.w3.org/2000/svg"
 width="300.000000pt" height="400.000000pt" viewBox="0 0 300.000000 400.000000"
 preserveAspectRatio="xMidYMid meet">
<metadata>
Created by potrace 1.10, written by Peter Selinger 2001-2011
</metadata>
<g transform="translate(0.000000,400.000000) scale(0.100000,-0.100000)"
fill="#c27ba0" stroke="none">
<path d="M1743 3567 c27 -24 29 -45 12 -117 -7 -34 8 -55 31 -45 17 7 17 9 2
12 -20 5 -32 33 -19 46 14 14 44 4 56 -18 6 -11 18 -32 28 -46 29 -43 -2 -82
-34 -43 -10 13 -10 17 2 25 12 7 11 9 -3 9 -23 0 -28 -20 -11 -52 l14 -28 37
24 c20 13 36 29 34 36 -1 6 5 18 14 27 13 14 17 14 25 2 5 -8 6 -22 3 -31 -3
-9 4 -34 15 -56 18 -35 23 -38 51 -34 17 2 35 13 41 24 10 19 9 20 -26 14 -32
-6 -37 -4 -42 13 -3 12 -10 21 -15 21 -6 0 -7 11 -4 25 7 27 -15 45 -57 45
-23 0 -53 24 -58 45 -1 6 -15 18 -30 27 -16 10 -29 26 -29 35 -1 27 -23 58
-44 61 -15 3 -14 -1 7 -21z"/>
<path d="M1593 3483 c-13 -8 -23 -20 -23 -25 0 -17 -45 -47 -62 -42 -10 3 -28
-2 -40 -10 -12 -9 -18 -16 -13 -16 6 0 3 -4 -5 -10 -9 -5 -19 -5 -27 2 -7 5
-18 8 -25 5 -7 -3 2 -10 20 -17 21 -8 30 -15 22 -20 -8 -5 -7 -9 5 -14 24 -9
49 12 35 29 -11 13 -4 45 10 45 7 0 21 -23 24 -40 1 -3 5 -11 9 -17 14 -22 28
-14 21 11 -4 17 1 31 15 45 12 12 21 28 21 36 0 16 43 31 60 20 6 -4 8 -16 4
-28 -6 -21 -6 -22 9 -2 13 17 13 22 0 42 -18 27 -29 28 -60 6z"/>
<path d="M1676 3424 c-3 -9 -6 -29 -6 -46 0 -46 23 -28 25 20 2 42 -8 56 -19
26z"/>
<path d="M1710 3438 c0 -4 4 -18 10 -32 6 -16 6 -27 -1 -31 -11 -7 -3 -25 12
-25 14 0 11 54 -6 76 -8 10 -15 16 -15 12z"/>
<path d="M1600 3420 c0 -9 39 -25 46 -18 2 3 -7 10 -21 16 -14 6 -25 7 -25 2z"/>
<path d="M1594 3370 c0 -11 4 -20 8 -20 4 0 8 9 8 20 0 11 -4 20 -8 20 -4 0
-8 -9 -8 -20z"/>
<path d="M1630 3347 c0 -8 6 -14 14 -14 8 0 12 6 9 14 -3 7 -9 13 -14 13 -5 0
-9 -6 -9 -13z"/>
<path d="M1758 3342 c-3 -10 1 -24 9 -31 19 -17 22 -12 16 22 -6 31 -18 36
-25 9z"/>
<path d="M2050 3345 c7 -8 17 -15 22 -15 6 0 5 7 -2 15 -7 8 -17 15 -22 15 -6
0 -5 -7 2 -15z"/>
<path d="M1350 3345 c0 -23 29 -57 54 -64 36 -9 41 -7 33 14 -4 8 -16 15 -28
15 -12 0 -23 8 -26 20 -4 17 -33 30 -33 15z"/>
<path d="M1710 3316 c0 -9 7 -16 16 -16 9 0 14 5 12 12 -6 18 -28 21 -28 4z"/>
<path d="M1311 3311 c-9 -6 -10 -11 -2 -15 19 -12 1 -27 -19 -16 -10 5 -26 10
-36 10 -16 0 -16 -1 1 -20 22 -24 80 -27 89 -5 3 8 1 15 -4 15 -5 0 -10 9 -12
20 -2 14 -7 17 -17 11z"/>
<path d="M1520 3310 c0 -5 9 -10 20 -10 11 0 20 -4 20 -10 0 -5 5 -10 10 -10
19 0 10 17 -15 28 -32 15 -35 15 -35 2z"/>
<path d="M1865 3305 c-3 -8 -7 -22 -10 -31 -3 -11 0 -14 13 -10 54 15 62 18
62 27 0 5 -9 9 -20 9 -11 0 -20 5 -20 10 0 16 -20 12 -25 -5z"/>
<path d="M2080 3297 c0 -8 -5 -17 -11 -19 -5 -2 -7 -11 -4 -21 4 -9 11 -14 16
-11 8 4 14 -25 10 -48 -2 -16 62 -8 74 9 7 9 17 13 23 9 14 -9 16 -36 2 -36
-6 0 -6 -9 -1 -22 4 -13 9 -56 10 -96 2 -73 2 -74 -21 -67 -13 4 -39 15 -58
25 -45 23 -112 41 -105 29 4 -5 12 -9 18 -9 7 0 39 -14 72 -30 60 -30 89 -35
119 -24 13 5 14 9 5 20 -7 8 -9 17 -6 20 3 3 1 19 -5 36 -8 23 -8 32 3 38 9 6
10 12 3 22 -18 23 -14 57 8 64 19 6 18 7 -8 23 -47 28 -76 32 -91 13 -13 -15
-13 -15 -7 7 4 16 3 21 -5 17 -10 -7 -15 5 -12 30 1 6 -6 17 -14 24 -12 10
-15 10 -15 -3z"/>
<path d="M720 3290 c0 -10 71 -33 78 -25 3 3 -4 7 -14 11 -10 3 -29 10 -41 15
-14 5 -23 5 -23 -1z"/>
<path d="M655 3277 c39 -27 142 -77 230 -112 50 -20 101 -42 115 -47 14 -6 35
-10 47 -9 11 1 24 -2 27 -8 4 -6 14 -7 22 -4 14 5 12 8 -7 19 -13 7 -36 13
-50 14 -33 0 -92 24 -82 33 3 4 -5 7 -19 7 -25 0 -254 93 -272 111 -6 5 -15 9
-20 9 -6 0 -2 -6 9 -13z"/>
<path d="M1106 3275 c10 -8 28 -14 39 -14 18 0 17 1 -5 14 -34 20 -60 20 -34
0z"/>
<path d="M1540 3268 c0 -3 8 -8 17 -10 15 -3 15 -4 -1 -20 -10 -10 -14 -18 -9
-18 4 0 0 -5 -11 -11 -11 -7 -21 -8 -25 -2 -3 5 -15 15 -26 21 -11 6 -14 12
-7 12 20 0 14 17 -9 23 -15 4 -18 2 -10 -7 6 -7 8 -15 5 -18 -3 -3 13 -19 34
-36 l39 -31 23 49 c13 28 26 50 30 50 4 0 17 -11 30 -25 13 -14 19 -25 13 -25
-16 0 -10 -43 7 -47 13 -4 13 -3 0 6 -13 10 -13 13 3 25 16 12 16 15 2 29 -11
12 -12 17 -2 20 6 3 3 6 -9 6 -11 1 -24 4 -28 9 -10 9 -66 9 -66 0z"/>
<path d="M810 3261 c0 -5 21 -17 48 -27 26 -9 74 -28 107 -41 77 -32 103 -39
90 -26 -5 6 -41 23 -80 37 -38 15 -79 31 -90 35 -64 27 -75 30 -75 22z"/>
<path d="M2010 3251 c0 -12 29 -35 36 -28 11 10 -5 37 -21 37 -8 0 -15 -4 -15
-9z"/>
<path d="M1035 3233 c17 -9 35 -21 40 -28 6 -7 22 -9 40 -5 33 7 31 8 -49 34
-62 20 -69 20 -31 -1z"/>
<path d="M1158 3228 c16 -16 25 -19 33 -11 16 16 2 33 -29 33 l-26 0 22 -22z"/>
<path d="M1669 3192 c11 -8 11 -10 0 -14 -8 -3 5 -5 28 -5 39 1 49 7 20 13 -7
2 -23 6 -37 9 -18 5 -21 4 -11 -3z"/>
<path d="M1201 3186 c2 -2 14 -9 26 -15 19 -10 22 -9 17 4 -4 8 -15 15 -27 15
-11 0 -18 -2 -16 -4z"/>
<path d="M1290 3156 c0 -7 11 -16 25 -18 14 -3 25 -4 25 -3 0 2 -11 10 -25 19
-20 13 -25 14 -25 2z"/>
<path d="M1320 3163 c8 -2 32 -11 53 -19 20 -7 37 -12 37 -9 0 8 -71 35 -89
34 -13 0 -13 -1 -1 -6z"/>
<path d="M1524 3148 c-3 -5 -15 -8 -27 -9 l-22 0 23 -9 c33 -14 27 -20 -10 -9
-42 12 -48 4 -7 -10 41 -14 79 -14 79 0 0 6 6 9 14 6 8 -3 17 -1 20 6 3 9 5 9
5 0 1 -9 17 -13 46 -13 35 0 43 3 39 15 -4 8 -10 15 -16 15 -5 0 -6 -4 -3 -10
3 -5 2 -10 -4 -10 -5 0 -13 5 -16 10 -3 6 -12 10 -18 10 -7 0 -6 -4 3 -10 8
-5 10 -10 5 -10 -6 0 -15 4 -20 9 -14 13 -76 1 -68 -13 4 -6 -2 -4 -12 4 -17
14 -14 16 41 27 l59 11 -53 -1 c-30 -1 -56 -5 -58 -9z"/>
<path d="M1803 3153 c9 -2 25 -2 35 0 9 3 1 5 -18 5 -19 0 -27 -2 -17 -5z"/>
<path d="M1955 3150 c3 -5 13 -6 22 -3 10 4 14 2 10 -4 -3 -5 0 -10 8 -10 20
0 19 13 -1 21 -24 9 -46 7 -39 -4z"/>
<path d="M2090 3126 c0 -45 19 -61 54 -45 27 13 30 20 20 57 -5 17 -14 22 -40
22 -32 0 -34 -2 -34 -34z m40 -1 c0 -8 -4 -15 -10 -15 -5 0 -10 7 -10 15 0 8
5 15 10 15 6 0 10 -7 10 -15z"/>
<path d="M1696 3125 c7 -18 104 -22 104 -4 0 8 6 7 17 -2 14 -12 16 -12 11 1
-3 9 -20 16 -42 18 -24 1 -35 -1 -31 -8 3 -5 1 -10 -4 -10 -6 0 -11 5 -11 10
0 6 -5 10 -11 10 -5 0 -7 -4 -4 -10 3 -5 1 -10 -4 -10 -6 0 -11 5 -11 10 0 6
-4 10 -10 10 -5 0 -7 -7 -4 -15z"/>
<path d="M2030 3136 c0 -2 6 -9 14 -15 10 -9 15 -8 20 4 4 10 -1 15 -14 15
-11 0 -20 -2 -20 -4z"/>
<path d="M502 3125 c13 -13 320 -166 325 -162 6 7 -96 63 -218 121 -88 42
-121 54 -107 41z"/>
<path d="M1859 3123 c12 -4 12 -6 0 -15 -10 -7 -6 -8 14 -4 15 4 27 2 27 -2 0
-5 20 -8 44 -8 30 1 40 4 30 9 -9 5 -27 6 -41 3 -16 -5 -22 -3 -18 4 3 5 -2
10 -12 10 -10 0 -27 2 -38 4 -11 2 -14 1 -6 -1z"/>
<path d="M1444 3106 c11 -9 27 -16 35 -15 14 0 14 1 1 6 -8 3 -24 10 -35 15
-20 9 -20 9 -1 -6z"/>
<path d="M2265 3103 c22 -15 32 -16 39 -4 3 5 -8 11 -26 13 -28 5 -29 4 -13
-9z"/>
<path d="M1376 3094 c-9 -8 -16 -13 -16 -10 0 3 -16 -3 -36 -13 -20 -11 -43
-17 -53 -14 -14 4 -14 3 -1 -6 8 -6 24 -8 35 -5 13 3 10 -1 -7 -11 -46 -26
-32 -26 24 0 29 13 56 33 60 45 8 21 23 26 33 10 3 -5 14 -10 23 -10 11 0 6 6
-12 15 -35 18 -31 18 -50 -1z"/>
<path d="M1150 3070 c-12 -8 -11 -10 7 -10 12 0 25 5 28 10 8 13 -15 13 -35 0z"/>
<path d="M980 3060 c0 -15 21 -23 32 -12 6 6 2 11 -11 15 -12 3 -21 1 -21 -3z"/>
<path d="M1973 3038 c-14 -18 -35 -58 -30 -58 3 0 17 16 31 35 15 19 23 35 18
35 -5 0 -14 -6 -19 -12z"/>
<path d="M1255 3030 c-4 -6 -16 -8 -28 -5 -12 2 -16 2 -9 -1 9 -4 10 -10 2
-19 -8 -9 -5 -12 12 -11 13 0 23 6 23 11 0 6 4 16 8 23 5 6 6 12 3 12 -3 0 -8
-5 -11 -10z"/>
<path d="M1421 3016 c12 -10 60 -16 54 -6 -3 5 -18 10 -32 10 -15 0 -24 -2
-22 -4z"/>
<path d="M2268 2988 c9 -9 15 -9 24 0 9 9 7 12 -12 12 -19 0 -21 -3 -12 -12z"/>
<path d="M1046 2965 c-10 -14 -15 -34 -12 -43 3 -9 1 -24 -4 -32 -8 -12 -14
-13 -42 -3 l-33 13 25 -20 c14 -11 31 -20 38 -20 6 0 12 -4 12 -9 0 -5 3 -17
7 -27 5 -13 3 -15 -7 -9 -9 6 -11 4 -6 -4 13 -20 20 -4 22 47 3 60 11 109 19
122 14 22 -4 8 -19 -15z"/>
<path d="M2011 2973 c-8 -3 -30 -16 -49 -29 -19 -13 -43 -24 -53 -24 -11 0
-19 -7 -19 -16 0 -25 48 -9 87 28 30 29 35 30 85 24 33 -5 49 -4 43 2 -13 12
-76 22 -94 15z"/>
<path d="M890 2962 c0 -5 9 -12 21 -15 13 -3 19 -1 16 6 -5 15 -37 22 -37 9z"/>
<path d="M1398 2963 c12 -2 32 -2 45 0 12 2 2 4 -23 4 -25 0 -35 -2 -22 -4z"/>
<path d="M2132 2958 c3 -7 22 -14 43 -16 34 -3 37 -2 26 12 -16 19 -75 22 -69
4z"/>
<path d="M570 2926 c0 -11 89 -48 100 -41 6 3 10 2 10 -4 0 -12 87 -54 102
-49 11 4 -110 83 -127 83 -5 0 -16 4 -24 9 -10 7 -12 6 -6 -4 6 -10 4 -12 -8
-7 -10 4 -24 10 -32 13 -8 3 -15 3 -15 0z"/>
<path d="M1981 2917 c-18 -18 -12 -28 13 -21 15 3 34 -1 50 -12 26 -16 49 -13
30 5 -22 21 -82 39 -93 28z"/>
<path d="M825 2900 c3 -5 13 -10 21 -10 8 0 12 5 9 10 -3 6 -13 10 -21 10 -8
0 -12 -4 -9 -10z"/>
<path d="M1990 2855 c-19 -11 -21 -14 -7 -15 9 0 17 -4 17 -10 0 -5 10 -10 23
-9 l22 0 -24 10 c-19 8 -21 12 -11 24 15 18 12 18 -20 0z"/>
<path d="M415 2850 c3 -5 27 -20 53 -33 134 -65 155 -79 141 -88 -11 -7 -9 -9
7 -9 28 0 114 -30 114 -40 0 -4 20 -11 45 -14 31 -5 45 -12 45 -22 0 -12 5
-11 26 5 15 12 34 21 43 21 14 0 14 2 1 10 -20 13 -33 12 -24 -1 5 -9 -5 -11
-37 -7 -28 3 -110 38 -227 97 -101 50 -185 91 -188 91 -3 0 -2 -4 1 -10z"/>
<path d="M580 2834 c0 -3 26 -16 58 -30 31 -14 71 -31 87 -38 82 -35 142 -59
165 -63 l25 -5 -22 16 c-12 9 -64 32 -115 50 -51 18 -117 43 -145 55 -29 11
-53 18 -53 15z"/>
<path d="M2053 2816 c4 -10 -2 -16 -16 -19 -12 -2 -8 -2 8 0 17 2 40 4 52 5
17 2 20 5 11 15 -15 18 -62 17 -55 -1z"/>
<path d="M720 2800 c19 -13 30 -13 30 0 0 6 -10 10 -22 10 -19 0 -20 -2 -8
-10z"/>
<path d="M1071 2803 c-1 -7 -12 -13 -25 -13 -14 0 -26 -7 -30 -17 -3 -10 -9
-25 -12 -33 -3 -8 3 -4 14 9 11 13 24 21 29 18 14 -9 36 19 30 35 -4 10 -6 10
-6 1z"/>
<path d="M1127 2776 c-3 -8 -2 -18 4 -22 16 -9 22 2 11 21 -8 15 -10 16 -15 1z"/>
<path d="M1655 2730 c6 -56 16 -66 12 -12 -1 22 -6 44 -9 48 -4 3 -5 -13 -3
-36z"/>
<path d="M485 2750 c3 -5 18 -10 32 -10 32 0 28 5 -10 14 -19 4 -26 3 -22 -4z"/>
<path d="M1791 2742 c-7 -13 -11 -26 -8 -28 8 -8 29 25 25 38 -3 8 -9 4 -17
-10z"/>
<path d="M937 2719 c-21 -37 -21 -49 -3 -49 8 0 17 15 21 36 8 47 4 50 -18 13z"/>
<path d="M1465 2740 c-39 -15 -48 -35 -31 -73 20 -50 49 -63 83 -39 30 22 39
88 13 97 -11 5 -12 8 -2 14 18 11 -36 12 -63 1z m18 -37 c-4 -11 -3 -14 5 -9
7 4 12 2 12 -4 0 -6 5 -8 10 -5 6 3 10 1 10 -4 0 -14 -6 -14 -41 4 -29 16 -31
35 -4 35 9 0 12 -6 8 -17z"/>
<path d="M1050 2722 c-38 -24 -100 -85 -99 -97 3 -22 -1 -38 -8 -32 -3 4 -11
-3 -18 -16 -7 -12 -26 -48 -43 -80 -17 -31 -35 -57 -39 -57 -4 1 -9 -10 -10
-22 l-2 -23 7 23 c4 13 7 -23 8 -80 0 -103 24 -218 44 -218 13 0 13 10 -4 56
-17 49 -29 145 -27 208 2 46 36 134 47 123 3 -3 -1 -18 -9 -34 -25 -48 -30
-113 -13 -203 21 -119 30 -145 50 -148 14 -3 15 0 7 15 -44 82 -66 251 -41
317 16 43 21 26 10 -33 -5 -29 -7 -72 -4 -95 12 -77 20 -66 19 27 0 50 4 106
8 122 5 21 5 26 -3 15 -6 -10 -10 -11 -10 -2 0 6 8 20 18 30 9 10 26 30 37 43
11 13 40 49 65 79 25 30 50 59 57 63 7 4 13 12 13 18 0 22 -52 -27 -121 -116
-40 -51 -75 -92 -78 -90 -5 6 37 69 73 110 14 17 24 36 21 43 -3 7 -1 11 3 8
5 -3 16 3 24 13 9 11 24 24 34 29 11 6 17 13 14 15 -3 3 -16 -2 -30 -11z"/>
<path d="M1271 2731 c-9 -6 -2 -10 22 -13 29 -3 34 -1 25 9 -12 15 -27 16 -47
4z"/>
<path d="M816 2705 c10 -8 24 -14 29 -14 6 0 1 6 -9 14 -11 8 -24 15 -30 15
-5 0 -1 -7 10 -15z"/>
<path d="M1793 2669 c-9 -22 -9 -29 0 -26 12 4 29 57 18 57 -3 0 -12 -14 -18
-31z"/>
<path d="M1181 2676 c-8 -10 -9 -16 -1 -21 5 -3 13 1 16 10 9 22 -1 29 -15 11z"/>
<path d="M1848 2683 c-10 -2 -18 -8 -18 -12 0 -4 -17 -25 -37 -46 -24 -24 -30
-34 -16 -26 18 9 26 7 51 -14 45 -38 83 -32 107 16 18 34 11 55 -26 74 -29 15
-32 16 -61 8z m32 -47 c0 -13 6 -27 13 -29 9 -4 9 -6 0 -6 -6 -1 -15 4 -18 9
-3 6 -15 10 -26 10 -24 0 -24 9 -1 26 25 19 32 17 32 -10z"/>
<path d="M1074 2653 c-23 -32 -38 -69 -52 -133 -16 -69 -20 -100 -11 -95 4 3
10 -3 12 -12 2 -10 3 -2 1 17 -4 40 6 87 15 72 3 -6 7 12 8 39 1 33 10 64 27
94 30 51 30 59 0 18z"/>
<path d="M1626 2655 c4 -11 13 -27 19 -35 7 -8 15 -22 18 -30 3 -9 6 -5 6 11
1 15 -9 35 -25 50 -22 21 -24 21 -18 4z"/>
<path d="M1087 2628 c-23 -52 -31 -82 -18 -74 6 4 11 13 11 19 0 7 9 29 20 50
11 20 16 37 11 37 -5 0 -15 -15 -24 -32z"/>
<path d="M2164 2649 c-9 -15 10 -32 30 -27 15 3 14 5 -3 20 -13 11 -23 13 -27
7z"/>
<path d="M508 2623 c6 -2 10 -8 8 -11 -2 -4 9 -7 25 -8 23 -1 27 2 18 12 -6 8
-23 14 -38 13 -14 0 -20 -3 -13 -6z"/>
<path d="M1121 2616 c-43 -54 -87 -225 -78 -303 3 -32 1 -46 -9 -50 -20 -8
-17 -24 11 -52 22 -24 75 -141 105 -236 26 -82 79 -136 155 -161 40 -12 54
-22 62 -45 13 -33 33 -39 30 -9 -1 11 -8 20 -17 20 -12 0 -12 2 -1 9 15 9 7
51 -10 51 -6 0 -7 -4 -4 -10 9 -15 -11 -12 -24 4 -7 8 -28 17 -48 21 -25 4
-32 9 -23 15 10 6 7 10 -11 13 -13 3 10 3 51 0 40 -3 94 -14 120 -25 47 -21
114 -32 105 -18 -3 4 -19 10 -37 13 -18 3 -53 13 -78 22 -25 9 -71 19 -103 22
-40 4 -62 11 -70 24 -9 12 -17 15 -27 8 -19 -11 -30 -11 -30 0 0 5 9 12 19 16
18 5 19 8 5 40 -8 19 -14 53 -14 75 0 45 -16 53 -30 15 -5 -14 -14 -25 -20
-25 -14 0 -13 13 3 29 10 11 9 13 -5 8 -21 -7 -22 -3 -7 26 l12 22 -23 -20
-23 -20 18 35 c15 29 15 33 2 22 -13 -11 -16 -10 -20 5 -4 15 -3 52 2 88 1 6
7 -1 15 -15 11 -21 11 -28 -1 -41 -7 -8 -13 -20 -13 -25 0 -5 5 -1 11 9 15 26
26 13 34 -39 6 -42 8 -45 22 -31 9 9 12 20 7 28 -4 8 -9 22 -9 32 -1 10 -7 22
-14 27 -9 5 -10 10 -2 14 6 4 11 22 11 39 0 26 2 29 11 17 9 -12 10 -12 5 3
-3 10 -6 25 -6 33 0 9 -4 12 -10 9 -5 -3 -10 -26 -10 -51 0 -30 -4 -43 -11
-38 -17 10 3 145 25 173 9 12 8 12 -11 3 -21 -12 -27 -30 -36 -102 -2 -25 -2
-25 -15 -3 -9 17 -8 32 8 79 10 32 17 60 15 63 -6 5 -35 -64 -35 -84 0 -8 -7
-15 -16 -15 -11 0 -14 -5 -10 -16 3 -9 6 -18 6 -20 0 -3 4 -3 9 1 18 11 22
-34 6 -66 -9 -17 -12 -28 -6 -25 6 4 11 2 11 -3 0 -18 -19 -12 -30 8 -12 23
-13 42 -1 23 5 -9 8 -4 7 16 -1 17 -4 28 -7 26 -4 -2 -9 2 -12 9 -4 11 -2 32
22 183 10 67 45 145 62 141 7 -1 13 3 16 9 2 6 -3 11 -12 11 -8 0 -19 -5 -24
-11z m58 -576 c-1 -3 3 -15 10 -27 10 -21 9 -23 -10 -23 -19 0 -20 2 -8 17 12
15 12 16 -3 10 -18 -6 -25 12 -11 27 7 7 26 4 22 -4z m31 -75 c0 -8 -6 -15
-14 -15 -20 0 -29 17 -14 23 22 9 28 7 28 -8z"/>
<path d="M1994 2591 c3 -5 17 -11 31 -13 20 -4 23 -3 14 8 -12 15 -54 20 -45
5z"/>
<path d="M615 2577 c23 -16 103 -57 110 -57 3 0 5 4 5 10 0 5 -11 12 -25 16
-14 3 -25 9 -25 13 0 7 -59 31 -75 31 -5 0 -1 -6 10 -13z"/>
<path d="M999 2553 c-25 -66 -53 -285 -39 -311 3 -7 12 42 19 109 7 67 19 145
26 175 13 58 11 70 -6 27z"/>
<path d="M1112 2527 c-16 -45 -11 -72 7 -39 7 13 11 35 9 50 -3 26 -4 25 -16
-11z"/>
<path d="M2040 2546 c0 -2 13 -6 29 -8 17 -2 28 -1 25 4 -5 8 -54 12 -54 4z"/>
<path d="M675 2505 c22 -18 26 -24 13 -25 -9 0 -20 5 -23 10 -3 6 -13 10 -21
10 -10 0 -8 -6 7 -21 14 -14 17 -24 10 -32 -5 -7 -14 -25 -20 -39 -10 -26 -9
-27 15 -16 14 6 23 17 20 23 -2 7 4 25 15 41 25 38 24 49 -6 62 -40 18 -43 14
-10 -13z"/>
<path d="M1836 2522 c-3 -5 1 -15 9 -22 16 -14 20 -3 6 19 -5 8 -11 9 -15 3z"/>
<path d="M952 2478 c-15 -62 -24 -148 -13 -123 9 22 32 157 27 163 -2 1 -8
-17 -14 -40z"/>
<path d="M2400 2485 c27 -14 36 -13 25 4 -3 6 -16 11 -28 11 -21 -1 -21 -1 3
-15z"/>
<path d="M1142 2470 c-6 -11 -12 -22 -12 -25 0 -11 20 6 30 26 14 25 -2 25
-18 -1z"/>
<path d="M1665 2470 c-12 -20 -16 -62 -5 -55 6 4 9 12 7 18 -2 7 2 20 11 30 9
10 10 17 4 17 -6 0 -14 -5 -17 -10z"/>
<path d="M2130 2466 c0 -2 12 -11 26 -21 25 -16 25 -16 14 4 -9 17 -40 30 -40
17z"/>
<path d="M1960 2451 c20 -12 92 -17 108 -7 7 4 17 4 24 0 6 -4 8 -3 5 3 -4 6
-39 11 -79 12 -47 0 -68 -2 -58 -8z"/>
<path d="M1895 2401 c8 -26 42 -68 49 -60 3 2 -9 22 -26 44 -23 30 -28 34 -23
16z"/>
<path d="M1627 2381 c-3 -12 -17 -21 -40 -25 -51 -10 -63 -28 -48 -76 14 -47
44 -70 95 -72 36 -1 43 3 82 58 16 24 9 54 -13 54 -8 0 -11 5 -7 11 5 8 1 8
-14 0 -11 -6 -28 -8 -36 -5 -25 9 -19 -21 7 -39 l22 -15 -25 -10 c-14 -5 -26
-6 -28 -1 -2 5 -19 16 -38 25 -33 16 -44 37 -24 49 6 3 10 1 10 -5 0 -6 5 -8
10 -5 6 4 17 1 25 -5 12 -10 15 -9 15 4 0 9 6 16 13 16 7 0 13 13 13 30 2 33
-11 41 -19 11z"/>
<path d="M643 2373 c-7 -3 -13 -13 -13 -24 0 -11 -7 -19 -17 -19 -11 0 -14 -3
-7 -8 12 -7 4 -44 -9 -43 -26 3 -28 -1 -8 -20 12 -12 23 -19 24 -18 18 29 28
59 22 69 -4 6 1 17 10 24 19 14 17 45 -2 39z"/>
<path d="M1013 2335 c0 -27 2 -38 4 -22 2 15 2 37 0 50 -2 12 -4 0 -4 -28z"/>
<path d="M1265 2305 c-20 -17 -31 -21 -36 -13 -4 7 -5 16 -3 20 3 4 1 8 -4 8
-5 0 -10 -26 -11 -57 -1 -51 3 -65 36 -115 31 -48 41 -57 60 -53 13 2 21 0 18
-6 -4 -5 -11 -7 -16 -4 -5 4 -9 2 -9 -3 0 -5 8 -12 18 -14 15 -4 18 0 16 19
-2 20 0 22 12 12 8 -7 13 -18 10 -26 -3 -8 -2 -11 3 -8 5 3 12 1 16 -4 3 -5
15 -8 27 -6 12 3 27 0 35 -6 9 -8 13 -8 13 -1 0 6 -4 12 -9 14 -5 2 -3 12 5
23 13 17 16 18 25 5 9 -12 10 -12 5 3 -3 11 -2 16 4 12 6 -3 10 -14 10 -23 0
-14 2 -14 9 -3 6 9 3 20 -8 33 -16 18 -17 18 -40 -9 -13 -15 -27 -27 -30 -27
-3 1 -12 -1 -19 -3 -17 -7 -42 15 -42 38 0 21 26 49 45 49 7 0 15 -9 18 -20 6
-23 27 -27 27 -5 0 20 -41 60 -49 48 -3 -5 -16 -8 -29 -7 -16 1 -21 -3 -18
-12 6 -16 -20 -19 -29 -4 -4 6 -11 8 -16 4 -6 -4 -6 -11 2 -20 6 -7 15 -11 20
-8 14 8 11 -12 -4 -24 -26 -22 -72 45 -70 104 1 33 -11 47 -19 22 -3 -7 -7 -6
-11 5 -5 13 4 24 32 42 39 24 60 45 44 45 -4 -1 -21 -12 -38 -25z"/>
<path d="M1936 2321 c-3 -5 1 -14 9 -21 11 -9 14 -8 12 9 -1 22 -12 28 -21 12z"/>
<path d="M2190 2266 c19 -13 39 -22 43 -19 11 7 -43 43 -63 43 -8 0 1 -11 20
-24z"/>
<path d="M2130 2256 c0 -9 7 -16 16 -16 17 0 14 22 -4 28 -7 2 -12 -3 -12 -12z"/>
<path d="M2264 2231 c10 -15 66 -44 66 -33 0 7 -20 20 -64 40 -5 3 -6 -1 -2
-7z"/>
<path d="M565 2205 c34 -28 45 -31 45 -12 0 8 -17 19 -37 25 l-38 12 30 -25z"/>
<path d="M1300 2210 c-14 -11 -23 -20 -20 -21 3 0 13 -2 22 -4 9 -2 24 8 33
21 20 30 1 32 -35 4z"/>
<path d="M961 2200 c-1 -28 14 -58 25 -47 4 3 2 12 -3 19 -6 7 -13 22 -16 33
-4 16 -5 16 -6 -5z"/>
<path d="M2070 2178 c0 -70 -46 -187 -86 -222 -19 -15 -31 -33 -28 -38 4 -6
10 -5 15 3 5 8 9 9 9 3 0 -16 -81 -94 -99 -94 -12 0 -13 -2 -3 -8 15 -10 -18
-27 -74 -38 -31 -6 -35 -9 -21 -18 13 -10 8 -12 -23 -11 -22 0 -42 4 -45 7 -4
4 -15 -1 -25 -10 -18 -15 -18 -16 18 -29 66 -23 94 -14 191 60 61 47 90 89
116 167 10 30 21 60 25 65 4 6 10 23 14 38 4 15 10 26 15 23 4 -3 6 5 4 18 -3
13 0 27 6 30 6 4 11 2 11 -3 0 -6 4 -11 9 -11 6 0 4 12 -4 26 -7 15 -11 32 -8
40 2 7 0 21 -6 31 -8 14 -10 9 -11 -29z"/>
<path d="M1550 2181 c18 -15 39 -21 78 -21 59 0 73 20 15 21 -47 1 -72 4 -98
14 -16 5 -15 3 5 -14z"/>
<path d="M1951 2183 c8 -10 18 -21 23 -24 5 -4 6 -15 1 -25 -6 -17 -8 -17 -17
6 -6 14 -12 20 -15 13 -5 -15 31 -65 41 -56 19 20 -1 86 -30 97 -15 6 -15 4
-3 -11z"/>
<path d="M2340 2190 c0 -5 10 -10 23 -10 18 0 19 2 7 10 -19 13 -30 13 -30 0z"/>
<path d="M2031 2155 c-8 -22 -16 -44 -19 -49 -3 -5 -6 -24 -7 -43 -1 -24 -13
-45 -41 -74 -21 -21 -43 -39 -49 -39 -5 -1 -23 -12 -40 -25 l-30 -25 43 17
c24 9 63 35 86 57 36 35 46 52 60 113 20 82 18 131 -3 68z"/>
<path d="M1190 2174 c0 -10 50 -96 68 -117 17 -20 182 -101 189 -93 3 2 -5 9
-16 16 -12 6 -21 18 -21 28 0 15 -2 15 -10 2 -7 -11 -10 -11 -10 -2 0 7 -4 11
-9 8 -5 -3 -14 1 -21 9 -7 8 -21 15 -32 15 -22 0 -118 92 -118 114 0 8 -4 18
-10 21 -5 3 -10 3 -10 -1z"/>
<path d="M400 2130 c91 -76 150 -118 150 -103 0 4 -33 31 -73 59 -80 56 -116
77 -77 44z"/>
<path d="M510 2132 c0 -12 23 -32 37 -32 22 0 15 16 -12 28 -14 6 -25 8 -25 4z"/>
<path d="M1895 2110 c-4 -6 -10 -8 -14 -5 -5 2 -13 -7 -19 -20 -11 -23 -10
-24 13 -13 14 6 23 13 20 16 -3 3 0 11 6 19 6 7 9 13 6 13 -3 0 -9 -5 -12 -10z"/>
<path d="M1540 2095 c0 -12 -5 -26 -12 -33 -8 -8 -9 -15 -2 -22 15 -15 56 -16
61 -2 3 9 -2 12 -13 10 -13 -2 -18 2 -16 15 2 9 -2 25 -7 35 -9 15 -10 15 -11
-3z"/>
<path d="M1753 2093 c-4 -10 -11 -21 -16 -25 -6 -3 2 -5 16 -5 18 1 27 8 27
19 0 24 -19 32 -27 11z"/>
<path d="M1920 2095 c0 -8 7 -15 16 -15 14 0 14 3 4 15 -7 8 -14 15 -16 15 -2
0 -4 -7 -4 -15z"/>
<path d="M890 2085 c-14 -16 -3 -20 19 -6 8 5 9 11 3 15 -5 3 -15 -1 -22 -9z"/>
<path d="M1620 2065 c0 -14 4 -25 9 -25 4 0 6 11 3 25 -2 14 -6 25 -8 25 -2 0
-4 -11 -4 -25z"/>
<path d="M1220 2060 c0 -15 42 -59 75 -80 34 -21 197 -80 222 -80 7 0 13 7 13
16 0 8 -4 13 -10 9 -11 -7 -61 5 -56 14 2 3 -12 7 -31 8 -19 1 -40 6 -46 11
-7 5 -28 15 -48 21 -20 6 -55 29 -78 50 -22 21 -41 35 -41 31z"/>
<path d="M424 2048 c10 -7 43 -32 74 -55 54 -42 72 -51 72 -35 0 7 -134 95
-154 100 -6 1 -3 -3 8 -10z"/>
<path d="M1657 2039 c-3 -10 -1 -22 4 -25 5 -3 9 0 9 6 0 6 4 9 8 6 5 -3 9 1
9 9 0 22 -24 26 -30 4z"/>
<path d="M2150 2036 c0 -7 63 -36 68 -32 2 3 -10 12 -27 20 -31 16 -41 19 -41
12z"/>
<path d="M1220 2001 c0 -6 15 -26 34 -44 26 -26 45 -36 84 -41 27 -3 63 -13
78 -21 64 -32 149 -47 267 -46 133 0 169 5 213 32 17 10 34 19 38 19 16 0 -5
-18 -46 -38 -52 -27 -154 -41 -263 -37 -62 2 -72 1 -45 -6 47 -12 160 -9 232
6 67 14 140 58 132 79 -4 11 -13 10 -46 -6 -22 -11 -46 -17 -54 -14 -8 3 -12
1 -9 -4 3 -5 -7 -9 -22 -9 -15 0 -72 -2 -126 -4 -104 -4 -145 2 -242 34 -33
12 -84 28 -113 37 -30 8 -67 28 -83 44 -16 16 -29 25 -29 19z"/>
<path d="M2176 1971 c-4 -6 -2 -11 4 -11 6 0 8 -4 5 -10 -3 -5 -1 -10 4 -10
13 0 14 10 2 29 -6 9 -11 10 -15 2z"/>
<path d="M2336 1941 c16 -16 106 -63 110 -58 6 5 -63 47 -77 47 -5 0 -9 5 -9
10 0 6 -8 10 -17 10 -10 0 -13 -3 -7 -9z"/>
<path d="M2234 1915 c11 -8 25 -15 30 -15 6 0 2 7 -8 15 -11 8 -25 15 -30 15
-6 0 -2 -7 8 -15z"/>
<path d="M1349 1859 c-10 -6 -7 -9 14 -9 29 0 35 5 14 13 -8 3 -20 1 -28 -4z"/>
<path d="M1445 1824 c53 -25 95 -31 95 -13 0 6 -8 8 -19 4 -11 -3 -40 3 -65
15 -63 28 -72 24 -11 -6z"/>
<path d="M2160 1840 c0 -5 4 -10 9 -10 5 0 18 -3 28 -7 16 -6 16 -5 4 10 -15
19 -41 23 -41 7z"/>
<path d="M1420 1805 c14 -8 32 -14 40 -14 8 0 0 6 -19 14 -42 19 -54 19 -21 0z"/>
<path d="M1836 1813 c-3 -4 -64 -10 -134 -14 l-127 -7 125 2 c74 1 133 7 145
14 11 6 15 12 9 12 -6 0 -14 -3 -18 -7z"/>
<path d="M2150 1800 c46 -25 64 -25 22 0 -18 11 -38 20 -45 20 -6 -1 4 -9 23
-20z"/>
<path d="M2234 1805 c11 -8 24 -15 30 -15 5 0 1 7 -10 15 -10 8 -23 14 -29 14
-5 0 -1 -6 9 -14z"/>
<path d="M720 1797 c0 -7 150 -65 187 -72 17 -3 37 -13 44 -21 18 -22 48 -18
42 6 -3 11 -9 20 -13 20 -4 0 -12 12 -19 26 -11 25 -13 25 -30 10 -22 -20 -30
-20 -83 3 -44 18 -128 37 -128 28z"/>
<path d="M1415 1782 c12 -10 19 -26 17 -41 -2 -15 0 -21 7 -16 6 3 8 11 5 17
-5 8 -1 9 11 4 15 -5 16 -4 5 9 -14 17 0 21 18 3 8 -8 8 -17 1 -32 -9 -19 -9
-20 4 -3 8 9 24 17 36 17 13 0 19 4 16 10 -4 6 -10 8 -15 5 -5 -3 -20 0 -32 7
-13 7 -39 18 -58 25 -33 11 -34 11 -15 -5z"/>
<path d="M1497 1778 c-7 -4 2 -8 20 -8 24 0 31 -4 29 -17 -2 -10 -14 -21 -27
-25 -22 -6 -22 -7 6 -6 73 1 91 -2 75 -13 -10 -7 -11 -9 -2 -7 23 6 14 23 -13
26 -14 2 -23 8 -20 13 4 5 0 9 -7 9 -9 0 -9 3 2 10 13 9 13 10 0 10 -13 0 -13
1 0 10 11 7 6 9 -18 7 -19 -1 -39 -5 -45 -9z"/>
<path d="M1598 1773 c12 -2 32 -2 45 0 12 2 2 4 -23 4 -25 0 -35 -2 -22 -4z"/>
<path d="M2100 1765 c0 -8 -4 -15 -10 -15 -5 0 -7 -6 -4 -14 3 -9 -3 -17 -16
-21 -12 -4 -19 -9 -16 -12 2 -3 -6 -16 -20 -30 -14 -14 -23 -27 -20 -30 10
-10 45 9 51 28 4 10 10 19 14 19 5 0 14 14 21 30 14 35 11 34 55 16 45 -19 44
-13 -2 19 -43 29 -53 31 -53 10z"/>
<path d="M692 1755 c9 -10 21 -16 28 -13 7 2 -1 10 -16 17 -27 12 -28 11 -12
-4z"/>
<path d="M1634 1745 c8 -8 17 -15 20 -15 3 0 6 7 6 15 0 9 -9 15 -21 15 -18 0
-19 -2 -5 -15z"/>
<path d="M770 1748 c3 -3 21 -13 40 -23 27 -13 32 -14 20 -2 -8 8 -26 18 -40
22 -14 4 -23 5 -20 3z"/>
<path d="M2220 1700 c14 -10 70 -42 125 -71 55 -28 107 -58 116 -65 17 -16 39
-19 39 -5 0 4 -30 22 -67 39 -78 36 -193 99 -207 113 -6 5 -15 9 -20 9 -6 0 0
-9 14 -20z"/>
<path d="M860 1703 c97 -37 193 -96 129 -80 -23 6 -23 5 -5 -8 11 -8 25 -15
30 -15 6 0 5 -4 -3 -9 -11 -7 -9 -11 7 -20 18 -10 21 -9 16 4 -4 9 -1 15 7 15
9 1 8 4 -4 11 -12 7 -16 17 -12 30 4 11 2 19 -4 19 -6 0 -10 5 -9 12 2 7 -11
12 -32 13 -19 1 -52 9 -74 19 -21 9 -44 16 -50 15 -6 0 -4 -3 4 -6z"/>
<path d="M1450 1692 c0 -5 7 -16 17 -23 13 -11 17 -11 20 -1 3 6 11 12 19 12
9 0 12 5 9 10 -5 8 -11 7 -21 -1 -11 -9 -17 -9 -29 1 -8 7 -15 8 -15 2z"/>
<path d="M1525 1666 c-11 -8 -14 -15 -8 -19 6 -4 16 0 23 8 17 21 8 28 -15 11z"/>
<path d="M649 1633 c25 -19 79 -49 229 -129 166 -89 224 -125 218 -139 -2 -7
2 -16 10 -19 9 -3 12 -1 9 4 -3 6 -1 10 4 10 28 0 4 20 -74 64 -47 26 -85 52
-85 57 0 5 -7 9 -15 9 -15 0 -105 44 -245 120 -41 22 -64 33 -51 23z"/>
<path d="M1620 1625 c-16 -9 -19 -14 -9 -15 8 0 24 7 35 15 24 18 7 19 -26 0z"/>
<path d="M1993 1607 c-10 -13 -44 -46 -75 -74 l-57 -52 36 6 c28 5 34 3 28 -6
-6 -10 -3 -11 15 -1 16 9 19 15 11 23 -6 6 -11 15 -11 19 0 17 35 7 90 -27 82
-50 87 -44 7 7 -37 24 -67 46 -67 49 0 4 16 14 35 23 36 17 54 36 35 36 -6 0
-8 5 -5 10 13 21 -24 9 -42 -13z"/>
<path d="M1500 1600 c0 -5 5 -10 11 -10 5 0 8 -4 4 -9 -3 -5 -1 -12 5 -16 13
-8 13 -55 0 -55 -5 0 -10 -7 -10 -15 0 -8 5 -15 10 -15 6 0 10 -7 10 -15 0 -8
-4 -15 -9 -15 -5 0 -8 -32 -7 -71 1 -40 -3 -81 -10 -95 -10 -19 -10 -25 2 -35
19 -16 30 -4 14 16 -24 28 23 17 80 -20 30 -19 57 -35 61 -35 4 0 9 14 11 32
4 26 3 29 -7 14 -11 -14 -17 -15 -41 -5 -16 6 -24 13 -18 16 8 3 6 15 -6 41
-16 32 -16 40 -4 64 8 15 18 30 24 33 17 10 32 45 20 45 -6 0 -13 -7 -17 -15
-5 -16 -60 -75 -69 -75 -9 0 -3 39 6 45 8 5 7 12 -2 22 -10 12 -9 17 5 24 9 6
17 15 17 21 0 6 -3 8 -7 4 -11 -10 -33 87 -22 100 6 7 0 15 -17 22 -31 15 -34
15 -34 2z m70 -275 c10 -12 10 -15 -1 -15 -8 0 -3 -9 11 -20 17 -13 20 -20 10
-20 -18 0 -70 39 -53 40 7 0 10 7 7 15 -4 8 -2 15 4 15 5 0 15 -7 22 -15z"/>
<path d="M1367 1580 c3 -11 9 -17 14 -15 10 7 1 35 -11 35 -5 0 -6 -9 -3 -20z"/>
<path d="M825 1581 c6 -5 28 -17 50 -26 22 -9 36 -12 30 -6 -5 5 -28 17 -50
26 -22 9 -35 12 -30 6z"/>
<path d="M2585 1570 c3 -5 13 -10 21 -10 8 0 12 5 9 10 -3 6 -13 10 -21 10 -8
0 -12 -4 -9 -10z"/>
<path d="M1041 1551 c-12 -7 -6 -15 25 -33 30 -17 35 -24 20 -26 -14 -3 -11
-8 18 -28 41 -28 49 -29 66 -9 10 12 9 15 -8 15 -29 0 -53 11 -46 21 3 5 -9
22 -26 39 -35 34 -31 32 -49 21z"/>
<path d="M2125 1530 c3 -5 13 -10 21 -10 8 0 12 5 9 10 -3 6 -13 10 -21 10 -8
0 -12 -4 -9 -10z"/>
<path d="M470 1516 c0 -8 291 -178 296 -173 3 3 -16 18 -43 33 -26 15 -92 54
-146 86 -94 56 -107 62 -107 54z"/>
<path d="M980 1508 c0 -8 75 -58 85 -58 5 0 1 6 -10 13 -48 33 -75 49 -75 45z"/>
<path d="M2117 1444 c3 -8 17 -17 32 -21 14 -3 38 -14 52 -24 29 -20 120 -61
125 -56 2 1 -46 28 -106 59 -62 33 -107 51 -103 42z"/>
<path d="M2610 1450 c0 -5 9 -10 21 -10 11 0 17 5 14 10 -3 6 -13 10 -21 10
-8 0 -14 -4 -14 -10z"/>
<path d="M450 1425 c7 -8 17 -15 22 -15 6 0 5 7 -2 15 -7 8 -17 15 -22 15 -6
0 -5 -7 2 -15z"/>
<path d="M1102 1421 c30 -24 62 -30 38 -7 -8 8 -26 17 -40 21 l-25 7 27 -21z"/>
<path d="M1944 1402 c1 -22 24 -46 51 -54 11 -3 28 -9 38 -13 12 -5 17 -2 17
9 0 10 -5 13 -17 9 -10 -4 -14 -2 -9 5 3 6 -2 13 -13 17 -10 3 -26 14 -36 25
-23 25 -33 25 -31 2z"/>
<path d="M490 1404 c0 -7 82 -56 86 -51 3 3 -15 16 -40 30 -26 14 -46 24 -46
21z"/>
<path d="M782 1398 c5 -15 48 -24 48 -10 0 10 -23 22 -42 22 -5 0 -8 -6 -6
-12z"/>
<path d="M970 1397 c0 -3 21 -17 48 -33 26 -15 59 -41 74 -58 23 -27 26 -28
21 -9 -3 12 -10 26 -17 31 -21 17 -126 73 -126 69z"/>
<path d="M2125 1370 c8 -13 65 -43 71 -37 3 3 -14 14 -36 26 -23 12 -39 17
-35 11z"/>
<path d="M1336 1352 c-4 -12 -21 -29 -37 -37 -36 -19 -37 -24 -3 -17 27 5 59
44 52 64 -3 8 -8 4 -12 -10z"/>
<path d="M2405 1360 c3 -5 15 -10 26 -10 11 0 17 5 14 10 -3 6 -15 10 -26 10
-11 0 -17 -4 -14 -10z"/>
<path d="M595 1340 c4 -6 26 -20 51 -31 24 -12 44 -27 44 -35 0 -8 9 -14 19
-14 11 0 70 -30 131 -66 61 -36 114 -64 116 -61 3 3 -21 20 -53 38 -72 40
-199 116 -233 138 -36 24 -83 43 -75 31z"/>
<path d="M1780 1343 c1 -18 19 -35 29 -28 9 5 9 10 0 21 -12 15 -29 19 -29 7z"/>
<path d="M803 1323 c4 -6 32 -25 62 -44 31 -19 86 -52 123 -75 37 -23 128 -77
202 -121 206 -123 404 -244 418 -255 7 -6 15 -8 18 -6 3 3 -16 19 -41 34 -25
16 -60 38 -78 49 -151 96 -583 355 -592 355 -2 0 -30 16 -61 36 -31 20 -54 32
-51 27z"/>
<path d="M500 1297 c19 -13 65 -40 103 -60 61 -33 67 -34 67 -17 0 12 -7 20
-17 20 -23 0 -113 46 -107 54 2 3 1 4 -2 1 -4 -2 -16 2 -28 10 -11 8 -27 15
-36 15 -8 0 1 -11 20 -23z"/>
<path d="M1994 1295 c-12 -13 -18 -25 -13 -27 19 -6 -12 -68 -38 -74 -30 -8
-16 -27 22 -29 22 -1 25 3 20 22 -8 33 15 38 62 15 49 -25 137 -73 188 -102
22 -13 68 -38 102 -57 35 -19 66 -39 69 -44 3 -5 10 -7 15 -4 5 4 9 2 9 -3 0
-5 12 -14 28 -21 l27 -11 -24 20 c-36 31 -224 139 -398 230 -61 31 -79 50 -47
50 8 0 24 -5 36 -11 11 -6 22 -8 26 -5 3 4 -9 12 -26 18 -18 7 -32 18 -32 26
0 8 5 10 13 6 8 -5 8 -2 -2 9 -16 21 -12 21 -37 -8z"/>
<path d="M2170 1280 c0 -8 70 -50 85 -50 18 0 -2 19 -40 38 -25 12 -45 17 -45
12z"/>
<path d="M1341 1235 c-1 -30 13 -64 23 -55 2 3 6 16 9 30 2 14 2 18 -1 10 -3
-9 -9 -4 -17 15 l-13 30 -1 -30z"/>
<path d="M2457 1254 c-11 -11 3 -24 24 -24 12 0 19 5 17 13 -5 14 -31 21 -41
11z"/>
<path d="M1141 1238 c-1 -12 -7 -16 -18 -12 -12 4 -9 -1 7 -14 14 -12 26 -20
27 -18 1 1 -2 15 -6 32 -5 16 -10 21 -10 12z"/>
<path d="M1852 1239 c2 -6 8 -10 13 -10 5 0 11 4 13 10 2 6 -4 11 -13 11 -9 0
-15 -5 -13 -11z"/>
<path d="M1538 1189 c29 -17 56 -29 59 -25 3 3 -10 12 -30 21 -19 8 -38 19
-42 25 -3 5 -14 10 -23 10 -9 0 7 -14 36 -31z"/>
<path d="M1680 1192 c0 -10 22 -32 32 -32 5 0 3 9 -4 20 -13 20 -28 27 -28 12z"/>
<path d="M2260 1191 c0 -11 31 -24 39 -16 3 3 -1 10 -9 15 -19 12 -30 12 -30
1z"/>
<path d="M2325 1190 c9 -14 85 -52 85 -43 -1 5 -21 18 -46 30 -25 13 -42 18
-39 13z"/>
<path d="M1428 1172 c-35 -21 -37 -47 -3 -47 24 0 29 6 26 32 -1 7 17 1 44
-13 25 -14 45 -23 45 -20 0 3 -18 15 -39 26 -22 10 -41 24 -43 29 -1 6 -15 2
-30 -7z"/>
<path d="M1767 1164 c3 -8 -1 -14 -8 -15 -8 0 30 -23 85 -50 54 -28 100 -49
102 -47 2 2 -13 13 -34 23 -61 32 -107 65 -107 76 0 7 -10 15 -22 20 -17 6
-21 5 -16 -7z"/>
<path d="M750 1158 c0 -6 3 -9 6 -5 3 3 18 1 32 -4 22 -8 23 -8 12 6 -15 18
-50 20 -50 3z"/>
<path d="M1145 1160 c3 -5 10 -10 15 -10 5 0 32 -14 61 -30 28 -17 54 -28 57
-25 3 3 1 5 -4 5 -6 0 -20 9 -31 19 -12 11 -38 27 -58 35 -44 19 -48 19 -40 6z"/>
<path d="M1650 1166 c0 -7 71 -46 83 -46 7 0 -6 12 -28 25 -38 24 -55 30 -55
21z"/>
<path d="M1874 1156 c-12 -10 -16 -18 -9 -24 20 -19 109 -66 101 -54 -4 7 -26
22 -49 34 -36 19 -39 23 -19 26 12 2 22 10 22 18 0 18 -21 18 -46 0z"/>
<path d="M590 1150 c0 -5 11 -10 24 -10 13 0 33 -2 43 -5 10 -3 5 1 -12 9 -36
18 -55 20 -55 6z"/>
<path d="M2041 1142 c13 -10 62 -38 109 -61 106 -53 108 -55 84 -82 -19 -22
-19 -22 3 -15 12 4 24 2 28 -4 5 -9 82 -50 93 -50 2 0 -1 7 -8 15 -7 8 -17 15
-22 15 -5 0 -14 5 -21 10 -7 6 -21 18 -32 26 -19 15 -19 15 10 9 26 -5 23 -1
-20 26 -68 44 -226 129 -238 129 -5 0 1 -8 14 -18z"/>
<path d="M833 1122 c0 -11 10 -19 25 -20 13 -1 60 -24 105 -52 45 -27 85 -50
89 -50 19 0 6 19 -19 29 -31 12 -60 30 -81 49 -7 7 -17 10 -22 7 -4 -3 -13 2
-20 10 -7 8 -18 15 -25 15 -7 0 -18 7 -25 15 -17 20 -29 19 -27 -3z"/>
<path d="M1328 1127 c-33 -13 -35 -23 -7 -30 14 -4 30 2 48 19 23 22 24 24 6
23 -11 -1 -32 -6 -47 -12z"/>
<path d="M1605 1115 c11 -9 29 -21 40 -26 20 -10 20 -10 0 6 -11 9 -29 21 -40
26 -20 10 -20 10 0 -6z"/>
<path d="M721 1101 c13 -10 35 -21 49 -25 18 -5 14 0 -15 18 -47 30 -69 35
-34 7z"/>
<path d="M1970 1113 c0 -5 36 -28 80 -52 44 -23 80 -38 80 -33 0 5 -26 21 -57
35 -32 14 -68 34 -80 43 -13 9 -23 12 -23 7z"/>
<path d="M1780 1092 c0 -10 71 -45 78 -38 2 3 -7 10 -21 15 -14 5 -28 15 -32
20 -7 13 -25 15 -25 3z"/>
<path d="M1583 1040 c48 -27 93 -50 100 -50 12 0 -7 13 -71 46 -23 13 -29 20
-20 27 9 6 8 7 -4 3 -10 -3 -30 1 -45 9 -15 8 -32 15 -38 15 -5 0 30 -22 78
-50z"/>
<path d="M1740 1071 c24 -20 40 -26 40 -16 0 2 -15 12 -32 20 l-33 16 25 -20z"/>
<path d="M1690 1066 c0 -7 72 -47 77 -43 2 3 -12 14 -32 26 -36 21 -45 24 -45
17z"/>
<path d="M1100 1043 c0 -4 17 -16 38 -26 30 -14 33 -14 17 -1 -29 23 -55 36
-55 27z"/>
<path d="M2142 1038 c3 -7 13 -15 22 -16 12 -3 17 1 14 10 -3 7 -13 15 -22 16
-12 3 -17 -1 -14 -10z"/>
<path d="M1842 1015 c9 -10 21 -16 28 -13 7 2 -1 10 -16 17 -27 12 -28 11 -12
-4z"/>
<path d="M1938 1009 c18 -12 35 -19 38 -16 3 3 -9 12 -27 21 -45 22 -50 20
-11 -5z"/>
<path d="M2000 1020 c35 -24 54 -31 30 -11 -14 11 -29 21 -35 21 -5 0 -3 -5 5
-10z"/>
<path d="M2080 1000 c30 -16 60 -29 65 -29 6 -1 -14 13 -44 29 -30 17 -59 30
-65 30 -6 0 14 -13 44 -30z"/>
<path d="M400 1000 c0 -5 -7 -7 -15 -4 -8 4 -15 1 -15 -5 0 -12 20 -14 44 -5
9 3 13 10 10 15 -7 12 -24 11 -24 -1z"/>
<path d="M1076 995 c4 -8 13 -15 21 -15 13 0 13 3 3 15 -7 8 -16 15 -21 15 -5
0 -6 -7 -3 -15z"/>
<path d="M1410 1007 c0 -9 85 -65 114 -77 39 -15 31 -5 -21 26 -27 15 -58 34
-70 42 -13 8 -23 12 -23 9z"/>
<path d="M933 980 c48 -26 61 -26 22 0 -16 11 -37 20 -45 20 -8 0 2 -9 23 -20z"/>
<path d="M2320 997 c0 -11 50 -45 55 -37 3 5 -8 16 -25 25 -16 8 -30 14 -30
12z"/>
<path d="M1720 971 c0 -5 11 -12 25 -15 14 -4 35 -16 46 -27 18 -18 69 -34 69
-23 0 2 -31 20 -70 39 -38 19 -70 31 -70 26z"/>
<path d="M1130 966 c0 -5 108 -76 116 -76 15 0 -21 31 -63 55 -46 25 -53 28
-53 21z"/>
<path d="M1941 966 c2 -2 15 -9 29 -16 23 -12 24 -12 11 3 -7 10 -20 17 -29
17 -8 0 -13 -2 -11 -4z"/>
<path d="M2169 918 c-23 -29 -46 -57 -50 -62 -8 -9 -71 26 -101 56 -20 20 -38
24 -38 9 0 -6 27 -24 60 -42 33 -17 60 -35 60 -39 0 -4 -9 -17 -20 -30 -14
-16 -23 -20 -32 -13 -23 18 -163 95 -152 83 7 -7 49 -33 95 -60 74 -42 85 -46
93 -31 5 9 28 39 51 66 48 57 89 115 82 115 -3 0 -24 -24 -48 -52z"/>
<path d="M1890 955 c0 -7 61 -37 66 -33 2 3 -12 12 -31 21 -19 9 -35 15 -35
12z"/>
<path d="M1100 945 c0 -6 56 -35 67 -35 4 0 -5 9 -22 20 -29 19 -45 25 -45 15z"/>
<path d="M1843 943 c10 -15 97 -66 104 -60 3 3 -10 13 -29 23 -18 9 -44 24
-58 33 -13 9 -21 11 -17 4z"/>
<path d="M2425 934 c24 -19 96 -57 100 -52 2 2 -24 18 -58 36 -34 18 -53 25
-42 16z"/>
<path d="M1015 932 c6 -5 21 -13 35 -17 17 -5 22 -4 15 3 -5 5 -21 13 -35 17
-17 5 -22 4 -15 -3z"/>
<path d="M1316 911 c5 -5 20 -12 34 -15 l25 -7 -25 15 c-28 17 -50 21 -34 7z"/>
<path d="M570 890 c8 -6 24 -16 35 -22 18 -9 17 -8 -2 11 -12 11 -28 21 -35
21 -9 0 -9 -3 2 -10z"/>
<path d="M1595 892 c18 -20 248 -153 258 -149 9 3 -24 23 -163 100 -19 10 -51
28 -70 40 -19 11 -30 15 -25 9z"/>
<path d="M1310 861 c0 -10 30 -24 37 -17 3 2 -5 9 -16 16 -12 6 -21 7 -21 1z"/>
<path d="M1425 850 c3 -5 12 -10 18 -10 7 0 23 -9 37 -20 14 -11 32 -19 40
-19 12 0 12 2 1 6 -8 3 -30 16 -49 29 -36 25 -58 31 -47 14z"/>
<path d="M590 847 c0 -11 94 -76 102 -71 8 5 -19 25 -89 68 -7 4 -13 5 -13 3z"/>
<path d="M1370 833 c0 -13 48 -38 57 -30 3 4 0 7 -7 7 -7 0 -22 7 -32 17 -10
9 -18 12 -18 6z"/>
<path d="M2186 833 c-3 -3 -3 -10 0 -14 7 -12 34 -11 34 0 0 11 -26 22 -34 14z"/>
<path d="M800 820 c19 -13 30 -13 30 0 0 6 -10 10 -22 10 -19 0 -20 -2 -8 -10z"/>
<path d="M1665 796 c11 -8 23 -16 28 -16 4 0 26 -12 48 -26 23 -14 43 -24 45
-21 6 5 -89 63 -118 72 -23 7 -23 7 -3 -9z"/>
<path d="M1530 739 c52 -28 136 -71 185 -95 50 -25 119 -62 155 -84 36 -22 69
-40 74 -40 16 0 -157 104 -239 144 -44 22 -115 59 -159 83 -43 24 -86 43 -95
43 -9 0 27 -23 79 -51z"/>
<path d="M1814 715 c11 -8 22 -12 25 -9 6 6 -19 24 -34 24 -5 -1 -1 -7 9 -15z"/>
<path d="M815 708 c11 -6 23 -16 27 -22 5 -8 8 -7 8 1 0 7 -9 17 -19 23 -27
14 -41 12 -16 -2z"/>
<path d="M1865 686 c11 -7 81 -46 155 -86 74 -40 141 -77 148 -82 7 -6 12 -7
12 -1 0 5 -19 20 -42 32 -24 12 -76 40 -117 62 -41 22 -95 50 -119 64 -48 27
-68 33 -37 11z"/>
<path d="M1940 696 c0 -7 72 -47 77 -43 2 3 -12 14 -32 26 -36 21 -45 24 -45
17z"/>
<path d="M2104 685 c21 -16 32 -13 21 4 -3 6 -14 11 -23 11 -15 -1 -15 -2 2
-15z"/>
<path d="M2285 655 c30 -25 59 -39 51 -26 -4 6 -22 18 -39 27 -30 14 -31 14
-12 -1z"/>
<path d="M920 645 c0 -2 18 -14 40 -25 49 -25 53 -19 6 9 -33 21 -46 25 -46
16z"/>
<path d="M1840 641 c0 -12 29 -35 36 -28 11 10 -5 37 -21 37 -8 0 -15 -4 -15
-9z"/>
<path d="M780 591 c24 -20 40 -26 40 -16 0 2 -15 12 -32 20 l-33 16 25 -20z"/>
<path d="M1374 561 c4 -6 22 -18 39 -27 30 -14 31 -14 12 1 -30 25 -59 39 -51
26z"/>
<path d="M1570 535 c33 -19 49 -19 24 0 -10 8 -26 14 -34 14 -9 0 -4 -6 10
-14z"/>
<path d="M1640 490 c14 -11 32 -19 40 -19 9 0 6 4 -6 9 -12 5 -25 13 -29 19
-3 6 -12 11 -18 11 -7 0 -1 -9 13 -20z"/>
<path d="M1890 410 c0 -5 7 -10 15 -10 8 0 15 5 15 10 0 6 -7 10 -15 10 -8 0
-15 -4 -15 -10z"/>
<path d="M1602 368 c5 -15 28 -18 29 -3 0 6 -7 12 -17 13 -10 3 -15 -1 -12
-10z"/>
</g>
</svg>
